<svg width="20" height="16" viewBox="0 0 20 16" fill="none" xmlns="http://www.w3.org/2000/svg">
<g clip-path="url(#clip0_1_6032)">
<path d="M18 6.5C18.83 6.5 19.5 7.17 19.5 8C19.5 8.83 18.83 9.5 18 9.5C17.17 9.5 16.5 8.83 16.5 8C16.5 7.17 17.17 6.5 18 6.5ZM18 0.5C18.83 0.5 19.5 1.17 19.5 2C19.5 2.83 18.83 3.5 18 3.5C17.17 3.5 16.5 2.83 16.5 2C16.5 1.17 17.17 0.5 18 0.5ZM18 12.5C18.83 12.5 19.5 13.18 19.5 14C19.5 14.82 18.82 15.5 18 15.5C17.18 15.5 16.5 14.82 16.5 14C16.5 13.18 17.17 12.5 18 12.5ZM14 15H2C1.45 15 1 14.55 1 14C1 13.45 1.45 13 2 13H14C14.55 13 15 13.45 15 14C15 14.55 14.55 15 14 15ZM14 9H2C1.45 9 1 8.55 1 8C1 7.45 1.45 7 2 7H14C14.55 7 15 7.45 15 8C15 8.55 14.55 9 14 9ZM15 2C15 2.55 14.55 3 14 3H2C1.45 3 1 2.55 1 2C1 1.45 1.45 1 2 1H14C14.55 1 15 1.45 15 2Z" fill="#5751E1"/>
</g>
<defs>
<clipPath id="clip0_1_6032">
<rect width="19" height="15" fill="white" transform="matrix(-1 0 0 1 19.5 0.5)"/>
</clipPath>
</defs>
</svg>
