<svg width="62" height="55" viewBox="0 0 62 55" fill="none" xmlns="http://www.w3.org/2000/svg">
<path d="M5.8125 0.425049C2.66406 0.425049 0 3.08911 0 6.23755V35.3C0 46.0774 8.71875 54.675 19.375 54.675H20.3438C22.0391 54.675 23.25 53.4641 23.25 51.7688V45.9563C23.25 44.3821 22.0391 43.05 20.3438 43.05H19.375C15.1367 43.05 11.625 39.6594 11.625 35.3V27.55H21.3125C24.582 27.55 27.125 25.0071 27.125 21.7375V6.23755C27.125 3.08911 24.582 0.425049 21.3125 0.425049H5.8125ZM40.6875 0.425049C37.5391 0.425049 34.875 3.08911 34.875 6.23755V35.3C34.875 46.0774 43.5938 54.675 54.25 54.675H55.2188C56.9141 54.675 58.125 53.4641 58.125 51.7688V45.9563C58.125 44.3821 56.9141 43.05 55.2188 43.05H54.25C50.0117 43.05 46.5 39.6594 46.5 35.3V27.55H56.1875C59.457 27.55 62 25.0071 62 21.7375V6.23755C62 3.08911 59.457 0.425049 56.1875 0.425049H40.6875Z" fill="#CECCFD"/>
</svg>
